<?xml version="1.0" ?><svg id="Layer_1" style="enable-background:new 0 0 91 91;" version="1.1" viewBox="0 0 91 91" xml:space="preserve" xmlns="http://www.w3.org/2000/svg" xmlns:xlink="http://www.w3.org/1999/xlink"><style type="text/css">
	.st0{fill:#4E7A9E;}
</style><g><g><path class="st0" d="M88.9,82.8C84,79,78.6,76.1,73,73.9C73.2,72,73,70,73,68.1c0-3,0-6.1-0.1-9.1c0-4.3,0.2-9-0.3-13.4    c6.1-1.3,12.4-3.5,16.9-8c3-3-1.6-7.6-4.7-4.7c-4.5,4.4-11.5,5.7-17.4,6.7c-7.3,1.2-14.7,1.4-22.1,1.2c-8.5-0.2-17-1.2-25.1-3.5    c-5.5-1.6-10.6-3.8-15.9-6c-1.6-0.7-2.9,1.5-2.1,2.8c3.3,5.3,10.5,7.9,16.2,9.7c0,0,0.1,0,0.1,0c0,0.5-0.1,0.9-0.1,1.4    c-0.5,3.9-0.8,7.8-1,11.7c-0.2,3.8-0.4,7.5-0.6,11.3c0,0.9-0.2,2-0.2,3c-6,2.2-11.4,6.1-15.6,10.9c-1.5,1.8,0.4,4.6,2.6,3.3    c5.3-3.1,10.3-6.6,16.2-8.4c5.7-1.8,11.7-2,17.7-2c16,0,33.3,2.2,46.4,12.5C87.5,90.4,92.4,85.5,88.9,82.8z M23.6,69.5    c0-0.4,0-0.7,0-1c0.1-3.8,0.2-7.7,0.2-11.5c0.1-3.8,0-7.7-0.2-11.5c0-0.1,0-0.2,0-0.3c7.3,1.7,14.8,2.6,22.3,2.7    c7.1,0.1,14.3-0.2,21.4-1.3c-0.5,4.1-0.5,8.4-0.7,12.5c-0.2,2.8-0.3,5.6-0.5,8.5c-0.1,1.4-0.2,2.7-0.3,4.1    c-8.9-2.4-18.4-3.2-27.7-3.2C33.3,68.5,28.4,68.7,23.6,69.5z"/><path class="st0" d="M28.4,25.6c-0.5,1.2-0.6,2.5-0.7,3.8c-0.2,1.2-0.5,2.6-0.3,3.8c0.1,1.5,1,2.7,2.6,2.9c1.3,0.2,3-0.7,3.2-2.1    c0.3-1.4,0.2-2.8,0.1-4.3c0-1.4-0.1-2.8-0.4-4.1C32.1,23.3,29.2,23.6,28.4,25.6z"/><path class="st0" d="M63.2,35c0.9-1.6,0.7-3.3,0.6-5c-0.1-1.6,0-3.2-0.5-4.7c-0.6-1.8-3.5-2.7-4.5-0.6c-0.8,1.6-0.9,3.3-1.1,5    c-0.2,1.9-0.6,3.5,0.2,5.3C58.8,37.2,62.1,36.9,63.2,35z"/><path class="st0" d="M13,21.1c7.5-3.2,14.6-7,21.2-11.9c3.9-2.8-0.4-8.4-4-5.2c-5.9,5.2-12,10.3-18.4,15    C10.5,20,11.6,21.8,13,21.1z"/><path class="st0" d="M78.4,20.6c0.7-0.1,1-1.1,0.7-1.6c-1.6-2.7-4.3-4.3-6.6-6.3c-2.6-2.3-4.9-4.8-6.9-7.5c-3.3-4.3-9.5,0.3-6,4.6    C63.6,14.6,71.5,21.9,78.4,20.6z"/></g></g></svg>